<?xml version="1.0" encoding="UTF-8"?><svg id="b" xmlns="http://www.w3.org/2000/svg" viewBox="0 0 328.6047 48.022"><g id="c"><g id="d"><g id="e"><path d="M0,42.3585V.965h11.4287v41.3935H0Z" fill="#fff"></path><path d="M53.3091,42.3585l-3.5879-8.9951h-17.0591l-3.7197,8.9951h-11.5972L35.7222.965h11.3437l18.1748,41.3935h-11.9316ZM35.8013,25.7438h10.7969l-5.3111-13.1655-5.4858,13.1655Z" fill="#fff"></path><path d="M78.333,42.4303c-2.3545-.4948-4.6078-1.3862-6.6636-2.6362h0c-1.8944-1.1548-3.4871-2.7434-4.6469-4.6348h0c-1.1463-1.9414-1.7252-4.1654-1.6709-6.4194h0c0-.0977,0-.1997.0024-.3076h0l.0181-.4829h11.0786v.5014c-.0389,1.1157.2349,2.2201.7905,3.1885h0l-.4277.2627.4277-.2607c.5276.8691,1.2573,1.5979,2.127,2.1245h0c.989.5894,2.0702,1.0081,3.1982,1.2387h0c1.2741.2781,2.5748.4168,3.8789.4136h0c.979-.0046,1.9568-.0698,2.9278-.1953h0c.9821-.1168,1.9445-.3627,2.8623-.7314h0c.8125-.3147,1.5457-.8045,2.1474-1.4346h0c.5431-.5901.8289-1.3722.7945-2.1734h0c.0317-.8813-.357-1.7252-1.0474-2.2739h0c-.9161-.7166-1.9541-1.2618-3.064-1.6094h0c-1.4579-.4848-2.9453-.8761-4.4531-1.1713h0c-1.6909-.3404-3.3974-.718-5.1196-1.1329h0c-1.7674-.374-3.5139-.8411-5.232-1.3994h0c-1.6348-.5168-3.1934-1.2491-4.6347-2.1777h0c-1.3587-.8761-2.5095-2.0387-3.3716-3.4063h0c-.9049-1.5034-1.3583-3.2353-1.3062-4.9892h0c-.0461-2.0186.5286-4.0027,1.6465-5.6841h0c1.1092-1.613,2.5557-2.9657,4.2393-3.9644h0c1.8172-1.0809,3.7952-1.865,5.8594-2.3227h0C80.8216.2583,82.9984.0075,85.1826.0045h0c2.4322-.0083,4.8589.232,7.2422.7173h0c2.1941.4299,4.3006,1.2244,6.232,2.3506h0c1.774,1.0352,3.2767,2.4772,4.3842,4.207h0c1.134,1.8782,1.7028,4.0434,1.6382,6.2364h0v.499h-11.0605l-.0347-.4624c-.0365-.9757-.3181-1.9265-.8188-2.7647h0c-.4567-.7149-1.0905-1.2996-1.8399-1.6972h0c-.8588-.4477-1.7837-.7552-2.7397-.9107h0c-1.1461-.1897-2.3062-.2817-3.4678-.2749h0c-.817.0008-1.6324.0739-2.4365.2183h0c-.7479.1284-1.4698.3781-2.1372.7392h0c-.5964.3179-1.1212.7548-1.542,1.2837h0c-.3912.5319-.5882,1.1818-.5581,1.8413h0c-.0304.5766.1229,1.148.4379,1.6319h0c.5085.5536,1.1544.9627,1.8721,1.186h0c1.3815.512,2.7993.9199,4.2417,1.2202h0c1.8355.4156,4.2354.9434,7.1812,1.5791h0c.9067.1548,2.1435.4297,3.7241.8291h0c1.68.4334,3.2954,1.0869,4.8042,1.9434h0c1.6192.909,3.0376,2.1362,4.1699,3.6079h0c1.2468,1.7002,1.8809,3.7726,1.7988,5.8794h0c.0118,1.8758-.4417,3.7252-1.3198,5.3828h0c-.9392,1.7203-2.2806,3.188-3.9097,4.2778h0c-1.9343,1.2832-4.0788,2.2169-6.3359,2.7588h0c-2.8343.6917-5.745,1.0202-8.6621.9776h0l-.0288.0005h0c-2.5842.0046-5.1612-.2743-7.6846-.8316Z" fill="#fff"></path><path d="M140.2163,12.5377c-.6096-.8259-1.3551-1.5423-2.2046-2.1186h0c-.9267-.6288-1.9444-1.1118-3.0175-1.4321h0c-1.1472-.3476-2.3399-.5216-3.5386-.5162h0c-1.9804-.0586-3.9492.3212-5.7656,1.1124h0c-1.4851.674-2.789,1.6908-3.8047,2.9667h0c-.9875,1.2674-1.7138,2.7181-2.1367,4.2681h0c-.4557,1.6321-.6846,3.3192-.6802,5.0137h0c-.0027,1.6275.2255,3.2471.6777,4.8105h0c.4318,1.5123,1.1581,2.9245,2.1372,4.1553h0c1.0222,1.264,2.3258,2.2715,3.8067,2.9419h0c1.816.7924,3.7851,1.1725,5.7656,1.1128h0c3.1059-.0024,5.4502-.8013,7.1323-2.3565h0c1.7478-1.6564,2.8567-3.8753,3.1323-6.2675h0l.0738-.5098,10.7319,1.8911-.0488.4649c-.1225,1.8956-.7384,3.7263-1.7867,5.3105h0c-1.1216,2.0757-2.6572,3.8993-4.5117,5.3579h0c-1.953,1.517-4.1705,2.6584-6.54,3.3662h0c-2.6543.7935-5.4129,1.1824-8.1831,1.1538h0c-3.3952.0495-6.772-.507-9.9717-1.6435h0c-2.7854-.9909-5.3402-2.5376-7.5093-4.5464h0c-2.0306-1.9154-3.6325-4.2392-4.7002-6.8184h0c-1.1015-2.6704-1.6573-5.5343-1.6347-8.4228h0c-.0265-2.9433.5284-5.8629,1.6328-8.5913h0c1.0655-2.6122,2.6659-4.9725,4.6982-6.9292h0c2.1593-2.0436,4.7161-3.6211,7.5112-4.6343h0C124.6778.5201,128.0571-.0471,131.4556.0031h0c2.5453-.0139,5.0807.3162,7.5376.9814h0c2.2695.6066,4.4266,1.5744,6.3887,2.8662h0c1.8636,1.2327,3.4588,2.8292,4.6899,4.6939h0c.9106,1.4347,1.5521,3.0233,1.8931,4.688h0l.1308.5224-10.6865,1.8662-.0845-.4917c-.1628-.9384-.5423-1.8259-1.1084-2.5918Z" fill="#fff"></path><path d="M180.1929,3.6203v14.9292h-1.5659V3.6203h1.5659Z" fill="#fff"></path><path d="M183.917,7.7394v1.7144h.0332c.402-1.184,1.5183-1.9765,2.7686-1.9654.4835-.0164.9639.0839,1.4004.2925.3668.1898.6788.4706.9062.8154.2423.3787.4076.8015.4863,1.2442.0971.5276.1439,1.0632.1397,1.5996v7.1094h-1.4004v-7.3184c.0309-.5667-.132-1.127-.4619-1.5889-.3036-.3885-.776-.6065-1.2686-.5854-.3858-.0098-.768.0762-1.1123.2505-.3151.1692-.5838.4133-.7822.7109-.2188.3286-.3778.6933-.4697,1.0772-.1083.4413-.1611.8943-.1573,1.3486v6.1055h-1.4004V7.7394h1.3184Z" fill="#fff"></path><path d="M195.4024,7.7394v1.5679h-1.6973v6.7119c-.0036.1683.0101.3364.041.5019.0201.1118.0751.2144.1572.293.0912.0762.2031.1235.3213.1357.1774.0235.3563.0339.5352.0313h.6426v1.5684h-1.0713c-.3129.0053-.6253-.0263-.9307-.0943-.2378-.0514-.4554-.1712-.626-.3447-.1772-.2026-.2993-.4474-.3545-.7109-.0863-.3983-.125-.8055-.1152-1.2129v-6.8794h-1.4502v-1.5679h1.4502v-3.2412h1.4004v3.2412h1.6973Z" fill="#fff"></path><path d="M202.9824,17.8595c-.6462.617-1.5132.9485-2.4062.9199-.6166.0153-1.2268-.1286-1.7715-.4179-.5067-.2854-.9387-.6866-1.2607-1.1709-.3605-.549-.6198-1.158-.7657-1.7984-.1771-.7473-.274-1.5114-.289-2.2793-.0076-.763.0923-1.5232.2968-2.2583.1757-.6349.457-1.2357.8321-1.7773.3324-.4785.7657-.8782,1.2695-1.1709.4892-.2787,1.0435-.4229,1.6065-.418.6788-.0253,1.3455.1851,1.8867.5957.5091.4093.9202.9273,1.2031,1.5161.3082.6339.5193,1.3106.626,2.0074.1125.6839.1595,1.377.1406,2.0698h-6.3779c-.0128.4533.0314.9064.1318,1.3486.0887.4027.2509.7856.4785,1.1294.2146.3236.5023.5922.8399.7842.3682.202.7833.3029,1.2031.2925.5353.0211,1.058-.1662,1.458-.5225.4202-.4313.6842-.9907.75-1.5893h1.3848c-.0995,1.0242-.534,1.9871-1.2364,2.7392ZM202.6445,10.9176c-.1128-.3511-.2856-.68-.5107-.9721-.2062-.2651-.464-.4857-.7578-.6485-.2954-.1612-.6273-.2439-.9639-.2402-.342-.0052-.6796.0775-.9804.2402-.2946.1628-.5505.3875-.75.6587-.2172.2946-.3842.6231-.4942.9722-.1234.3827-.1956.78-.2148,1.1816h4.8945c-.0201-.4055-.095-.8065-.2227-1.1919Z" fill="#fff"></path><path d="M207.0694,7.7394v2.2788h.0332c.2504-.7417.6809-1.4098,1.2529-1.9443.5275-.4292,1.1999-.6389,1.8779-.5855v1.8819c-.494-.0138-.9845.0862-1.4336.2924-.3916.1922-.7225.489-.956.8575-.2584.4203-.4371.8846-.5274,1.3696-.1161.6099-.171,1.2298-.164,1.8506v4.8091h-1.4014V7.7394h1.3184Z" fill="#fff"></path><path d="M214.9131,11.9v1.6729h-4.7617v-1.6729h4.7617Z" fill="#fff"></path><path d="M221.9502,3.6203l4.5977,14.9292h-1.7305l-1.2852-4.4956h-4.9765l-1.3184,4.4956h-1.5986l4.581-14.9292h1.7305ZM223.0371,12.381l-1.9609-6.9629h-.0322l-1.9942,6.9629h3.9873Z" fill="#fff"></path><path d="M233.8643,21.6022c-.7146.9154-1.8414,1.4103-2.999,1.3174-.4093-.0021-.8165-.0584-1.211-.1675-.4049-.108-.7855-.2925-1.1211-.5435-.3455-.2633-.6294-.5987-.832-.9829-.234-.4601-.358-.9682-.3623-1.4843h1.4004c.0015.2889.0844.5715.2392.8154.1419.2167.3271.4017.544.5434.2146.1398.4514.2424.7002.3033.2371.0609.4808.0926.7256.0942.411.0132.8171-.092,1.1699-.3032.327-.2113.5983-.4982.791-.8364.2238-.3993.3771-.8343.4531-1.2857.0967-.5452.1435-1.0981.1397-1.6518v-.711h-.0332c-.1895.6004-.5754,1.1196-1.0957,1.4741-.4619.3053-1.003.4688-1.5567.4703-.5853.0139-1.1626-.1383-1.665-.439-.4795-.2995-.8851-.7035-1.1865-1.1817-.3349-.5339-.5773-1.1206-.7168-1.7353-.1625-.6886-.2428-1.3941-.2393-2.1016.0024-.6634.0688-1.325.1982-1.9756.1205-.6446.343-1.2658.6592-1.8403.298-.5398.7152-1.0046,1.2198-1.3589.5495-.3687,1.201-.5552,1.8623-.5332.5282-.003,1.0449.1538,1.4824.4497.4779.3347.8451.8042,1.0547,1.3487h.0166v-1.5474h1.3183v9.8901c.0988,1.3912-.2352,2.7788-.956,3.9727ZM232.0762,16.7409c.333-.2547.6013-.5842.7832-.9619.2071-.4273.354-.8811.4365-1.3487.0932-.4964.1403-1.0003.1406-1.5054-.0001-.47-.0443-.939-.1318-1.4008-.0793-.4329-.2211-.852-.4209-1.2442-.1769-.3509-.4338-.6553-.75-.8886-.3276-.2293-.7204-.3466-1.1201-.3345-.4084-.012-.8108.1009-1.1533.3237-.3258.2235-.5942.5208-.7832.8677-.2138.3921-.3638.8157-.4444,1.2549-.0952.489-.1422.9861-.1406,1.4843,0,.4902.0385.9797.1152,1.4639.0686.459.2017.906.3955,1.3277.1689.3742.423.7037.7422.9619.3305.2518.7382.381,1.1534.3657.4223.0123.8367-.1164,1.1777-.3657Z" fill="#fff"></path><path d="M242.96,17.8595c-.6462.617-1.5133.9485-2.4063.9199-.6166.0153-1.2267-.1286-1.7715-.4179-.5067-.2854-.9387-.6866-1.2607-1.1709-.3605-.549-.6198-1.1581-.7656-1.7984-.1771-.7473-.274-1.5114-.2891-2.2793-.0076-.763.0923-1.5232.2969-2.2583.1757-.6349.4569-1.2357.832-1.7773.3324-.4785.7658-.8783,1.2696-1.1709.4892-.2787,1.0434-.4229,1.6064-.418.6788-.0254,1.3455.1851,1.8867.5957.5091.4093.9202.9273,1.2031,1.5161.3083.6339.5193,1.3106.626,2.0074.1125.6839.1596,1.377.1406,2.0698h-6.3779c-.0128.4533.0315.9064.1318,1.3486.0888.4027.251.7855.4786,1.1294.2146.3236.5023.5922.8398.7842.3682.202.7833.3029,1.2031.2925.5353.0211,1.058-.1662,1.458-.5225.4202-.4313.6842-.9907.75-1.5893h1.3848c-.0995,1.0242-.5341,1.987-1.2363,2.7392ZM242.6221,10.9176c-.1129-.3511-.2857-.68-.5108-.9721-.2062-.2651-.464-.4858-.7578-.6485-.2954-.1612-.6273-.2439-.9638-.2402-.342-.0052-.6796.0775-.9805.2402-.2946.1628-.5505.3875-.75.6587-.2172.2946-.3841.6231-.4941.9722-.1234.3827-.1956.78-.2149,1.1816h4.8945c-.02-.4055-.0949-.8065-.2226-1.1919h0Z" fill="#fff"></path><path d="M247.0967,7.7394v1.7144h.0332c.402-1.184,1.5183-1.9765,2.7686-1.9654.4835-.0164.9638.0839,1.4003.2925.3669.1898.6789.4705.9063.8154.2423.3787.4076.8015.4863,1.2442.0971.5276.1439,1.0632.1397,1.5996v7.1094h-1.4004v-7.3184c.0309-.5667-.132-1.127-.4619-1.5889-.3036-.3885-.776-.6065-1.2686-.5854-.3858-.0098-.768.0762-1.1123.2505-.3151.1692-.5838.4133-.7822.7109-.2188.3286-.3778.6933-.4697,1.0772-.1083.4413-.1611.8943-.1573,1.3486v6.1055h-1.4004V7.7394h1.3184Z" fill="#fff"></path><path d="M260.0322,9.6212c-.3689-.3836-.8853-.5893-1.4169-.5644-.4496-.0164-.893.1079-1.2686.3555-.3453.2418-.6257.565-.8164.9409-.2143.4243-.3615.8792-.4365,1.3486-.089.5215-.1331,1.0496-.1319,1.5786-.001.4912.0461.9814.1407,1.4634.0812.4412.2284.8677.4365,1.2651.1833.354.4489.6587.7744.8887.3344.2279.7321.3449,1.1367.3345.6184.032,1.217-.2225,1.6231-.69.4293-.5611.6791-1.2388.7168-1.9443h1.4345c-.0707,1.1269-.4818,2.2058-1.1787,3.0942-.6511.7338-1.5992,1.1336-2.5791,1.0874-.5979.0116-1.1894-.1249-1.7217-.3974-.5039-.2679-.9342-.6556-1.2529-1.1289-.3546-.5322-.6113-1.1236-.7578-1.7461-.177-.7288-.2629-1.4767-.2559-2.2266-.0049-.7634.0784-1.5247.2481-2.269.1428-.6516.3961-1.2739.749-1.8399.3172-.5047.7492-.9273,1.2607-1.2334.536-.3077,1.1458-.4632,1.7637-.4497.4622-.0034.9218.0709,1.3594.2198.4181.1433.8005.3749,1.1211.6791.3398.3308.6112.7252.7988,1.1607.2229.5283.3565,1.09.3955,1.6621h-1.4502c-.0672-.5868-.3083-1.1402-.6924-1.5889Z" fill="#fff"></path><path d="M266.6494,21.3097c-.1339.3192-.3113.6183-.5273.8887-.1709.213-.388.3845-.6348.5014-.2604.1104-.5414.1638-.8242.1568-.1656,0-.3308-.0139-.4941-.0415-.1649-.028-.3254-.0772-.4776-.1465v-1.6309c.1319.0557.2656.1114.4033.167.1332.055.2759.0835.42.084.2549.0113.5039-.0789.6923-.251.203-.2094.3603-.4586.462-.7319l.5761-1.8188-3.3779-10.7476h1.582l2.4883,8.8447h.0332l2.3897-8.8447h1.4824l-3.707,12.2319c-.1377.4547-.3.9015-.4864,1.3384Z" fill="#fff"></path><path d="M184.4531,30.7501c-.5487-.4906-1.2664-.7491-2.0019-.7211-.3283-.0003-.6552.0417-.9727.125-.3091.0789-.5983.2214-.8491.4184-.2581.2097-.4617.4788-.5933.7842-.1598.3874-.2357.8042-.2226,1.2231-.0183.398.0946.791.3213,1.1187.2276.2968.5211.5365.8574.7002.3864.1927.7924.3434,1.2109.4497.4512.1186.9082.2475,1.377.3867.4666.1397.9256.3038,1.375.4917.444.1839.8535.442,1.2109.7632.3695.338.6619.7514.8575,1.2124.2319.585.3409,1.2114.3203,1.8403.0201.7029-.1237,1.4009-.42,2.0386-.2546.533-.6225,1.004-1.0781,1.3799-.4353.3533-.9366.6163-1.4746.7739-.5273.1576-1.0746.2385-1.625.2402-.6364.0037-1.2687-.1024-1.8691-.3134-.5785-.2029-1.1068-.5274-1.5493-.9517-.4676-.4591-.8278-1.0161-1.0547-1.6309-.2739-.7532-.4052-1.5508-.3872-2.352h1.4829c-.0135.5539.0846,1.1049.2885,1.6201.1708.4222.4291.8035.7579,1.1187.314.2934.6882.5147,1.0966.6484.4142.1391.8483.2097,1.2852.209.3578-.0006.7144-.0427,1.0625-.1255.3464-.0788.6742-.2244.9648-.4287.2953-.2137.5329-.4974.6914-.8257.1907-.4196.281-.8778.2637-1.3384.02-.4409-.0922-.8777-.3223-1.2544-.2191-.3253-.5123-.5941-.8554-.7842-.3829-.2122-.7902-.3771-1.2129-.4912-.4492-.1255-.9075-.2544-1.375-.3867-.4668-.1323-.9255-.2858-1.376-.4604-.437-.166-.8457-.3988-1.2114-.69-.367-.2985-.6603-.6776-.8569-1.1079-.2308-.5376-.3405-1.1194-.3213-1.7041-.0158-.6698.1078-1.3356.3628-1.9551.218-.5181.547-.9821.9638-1.3593.3981-.3537.8632-.6239,1.3677-.7945.5064-.1734,1.038-.2617,1.5732-.2612.5719-.0052,1.1405.0866,1.6817.2715.5121.1794.9769.4725,1.3594.8574.4089.42.7232.9226.9218,1.4741.2423.6816.3678,1.3992.3711,2.1226h-1.4824c-.0014-.8644-.3277-1.6966-.9141-2.3316Z" fill="#fff"></path><path d="M192.6504,32.8307v1.5679h-1.6973v6.7119c-.0036.1683.0102.3365.0411.5019.02.1119.075.2145.1572.293.0912.0762.2031.1235.3213.1358.1774.0234.3562.0339.5351.0312h.6426v1.5684h-1.0713c-.3128.0053-.6252-.0263-.9306-.0943-.2378-.0514-.4554-.1712-.626-.3447-.1773-.2026-.2994-.4474-.3545-.7109-.0863-.3983-.125-.8055-.1152-1.2129v-6.8794h-1.4502v-1.5679h1.4502v-3.2412h1.4003v3.2412h1.6973Z" fill="#fff"></path><path d="M200.7412,43.8707c-.3329.0131-.6529-.1299-.8652-.3867-.2468-.3734-.36-.8192-.3213-1.2651-.328.5329-.7914.9694-1.3428,1.2651-.5135.2585-1.0813.3911-1.6562.3867-.3684.0024-.7351-.0504-1.0879-.1567-.3359-.1017-.6433-.2808-.8975-.5229-.2718-.2636-.4804-.5853-.6103-.941-.159-.4458-.2344-.917-.2227-1.3901-.0172-.5134.0671-1.0252.2481-1.5059.1441-.3611.3661-.6859.6504-.9511.2685-.2432.582-.4315.9228-.5542.3478-.1261.7029-.2308,1.0635-.3135.361-.0929.7268-.1662,1.0957-.2197.3106-.0406.6167-.1106.9141-.209.24-.075.456-.2121.6259-.3975.1685-.2172.2509-.489.2315-.7632.0132-.3226-.0459-.6441-.1729-.9409-.099-.2166-.2524-.4038-.4453-.5434-.183-.126-.3907-.2116-.6094-.251-.2202-.0413-.4438-.0623-.6679-.0625-.5275-.0192-1.0473.1308-1.4834.4282-.4515.413-.6884,1.0104-.6426,1.6206h-1.4004c.0039-.5799.1155-1.1541.3291-1.6933.1753-.4281.4458-.8107.791-1.1187.33-.2858.7182-.4964,1.1377-.6172.4392-.1269.8944-.1902,1.3516-.188.3839,0,.767.0349,1.1445.1045.3705.0663.7221.2126,1.0303.4287.3219.2337.5774.5472.7412.9097.2046.482.3003,1.0032.2803,1.5264v5.5615c-.0076.3079.0116.6159.0576.9204.0277.187.2003.3172.3877.2925.1484-.0064.294-.0419.4287-.1045v1.3799c-.297.1971-.65.2925-1.0059.2719ZM198.7803,38.424c-.2959.0786-.5958.1414-.8984.188-.3125.0493-.629.1045-.9473.1674-.2995.0559-.5885.1582-.8565.3033-.2547.1409-.4678.3464-.6181.5957-.1752.3234-.258.6888-.2393,1.0561-.0074.2547.0405.5079.1406.7422.0829.1885.2066.3563.3623.4912.1537.1283.3338.2211.5274.272.2014.0555.4093.0835.6182.0835.4086.0109.8143-.0712,1.1865-.2402.852-.4077,1.4005-1.2618,1.417-2.2061v-1.8193c-.1962.1785-.4344.3045-.6924.3662Z" fill="#fff"></path><path d="M204.3672,32.8307v1.7144h.0332c.402-1.184,1.5183-1.9764,2.7686-1.9654.4835-.0164.9639.0839,1.4004.2925.3668.1898.6788.4706.9062.8154.2423.3787.4076.8015.4863,1.2442.0971.5276.1439,1.0632.1397,1.5996v7.1094h-1.4004v-7.3184c.0309-.5667-.132-1.1271-.4619-1.5889-.3036-.3885-.776-.6065-1.2686-.5854-.3858-.0098-.768.0763-1.1123.2505-.3151.1692-.5838.4133-.7822.7109-.2188.3286-.3778.6933-.4697,1.0772-.1083.4412-.1611.8943-.1573,1.3486v6.1055h-1.4004v-10.8101h1.3184Z" fill="#fff"></path><path d="M218.4238,43.6408v-1.4639h-.0332c-.1901.5516-.5776,1.0134-1.0878,1.2964-.5019.2666-1.0626.4033-1.6309.3974-.6064.0143-1.2041-.1453-1.7227-.4599-.495-.3129-.9119-.735-1.2187-1.2339-.341-.5552-.5888-1.1626-.7334-1.7979-.1687-.7125-.252-1.4426-.2481-2.1748-.0037-.7315.0766-1.4611.2393-2.1743.1389-.6328.3842-1.2375.7256-1.7881.3075-.4925.7246-.9074,1.2187-1.2124.5153-.3069,1.1065-.4627,1.7061-.4497.2383.0022.4757.0302.708.0835.2643.0602.5194.1551.7588.2823.2621.1401.5034.3161.7168.5229.236.2323.4285.505.5683.8052h.0332v-5.562h1.4004v14.9292h-1.4004ZM213.3897,39.8039c.0922.4507.2533.8844.4775,1.2861.1995.3608.482.669.8242.8989.35.2275.7605.3441,1.1778.3345.4287.0133.8504-.1114,1.2031-.3555.3362-.2448.6124-.5629.8076-.9302.2175-.4098.3703-.8507.4531-1.3071.0931-.4893.1399-.9863.1397-1.4844.0016-.516-.0481-1.0309-.1485-1.5371-.0853-.4578-.2435-.899-.4687-1.3066-.2032-.3639-.4884-.6754-.833-.9097-.3672-.2377-.7982-.358-1.2354-.3447-.4288-.0134-.8505.1112-1.2031.3555-.3364.2444-.608.5675-.791.9409-.2085.4222-.353.8731-.4287,1.3379-.0887.511-.1328,1.0287-.1319,1.5473-.001.4956.0518.9899.1573,1.4742Z" fill="#fff"></path><path d="M222.0654,30.8859v-2.1743h1.4014v2.1743h-1.4014ZM223.4668,32.8307v10.8101h-1.4014v-10.8101h1.4014Z" fill="#fff"></path><path d="M226.959,32.8307v1.7144h.0332c.402-1.184,1.5183-1.9764,2.7686-1.9654.4835-.0164.9638.0839,1.4003.2925.3669.1898.6789.4705.9063.8154.2423.3787.4076.8015.4863,1.2442.0972.5276.1439,1.0632.1397,1.5996v7.1094h-1.4004v-7.3184c.0309-.5667-.132-1.1271-.4619-1.5889-.3036-.3885-.776-.6065-1.2686-.5854-.3858-.0098-.768.0763-1.1123.2505-.3151.1692-.5838.4133-.7822.7109-.2188.3286-.3778.6933-.4697,1.0772-.1083.4412-.1611.8943-.1573,1.3486v6.1055h-1.4004v-10.8101h1.3184Z" fill="#fff"></path><path d="M241.1973,46.6935c-.7146.9154-1.8414,1.4103-2.999,1.3174-.4093-.0021-.8165-.0584-1.211-.1675-.4049-.108-.7855-.2925-1.1211-.5435-.3455-.2633-.6294-.5987-.832-.9829-.234-.4601-.358-.9682-.3623-1.4843h1.4004c.0015.2889.0844.5715.2392.8154.1419.2167.3271.4017.544.5434.2147.1398.4514.2423.7002.3033.2371.0609.4808.0926.7256.0942.411.0132.8171-.092,1.1699-.3032.327-.2113.5983-.4982.791-.8364.2238-.3993.3771-.8343.4531-1.2857.0967-.5452.1435-1.0981.1397-1.6518v-.711h-.0332c-.1895.6004-.5754,1.1196-1.0957,1.4741-.4619.3053-1.003.4688-1.5567.4703-.5853.0139-1.1626-.1383-1.665-.439-.4794-.2995-.885-.7034-1.1865-1.1816-.3349-.534-.5772-1.1207-.7168-1.7354-.1625-.6886-.2428-1.3941-.2393-2.1016.0024-.6633.0688-1.3249.1983-1.9755.1204-.6446.3429-1.2659.6591-1.8404.298-.5398.7152-1.0045,1.2198-1.3589.5495-.3687,1.201-.5552,1.8623-.5332.5282-.003,1.0449.1537,1.4824.4497.4779.3347.8451.8042,1.0547,1.3487h.0166v-1.5474h1.3183v9.8901c.0988,1.3912-.2352,2.7788-.9561,3.9727ZM239.4092,41.8322c.333-.2547.6013-.5842.7832-.9619.2071-.4273.354-.8811.4365-1.3487.0932-.4963.1403-1.0003.1406-1.5053-.0001-.4701-.0443-.9391-.1318-1.4009-.0793-.4329-.2211-.852-.4209-1.2442-.1769-.3509-.4338-.6553-.75-.8886-.3276-.2293-.7204-.3466-1.1201-.3345-.4084-.012-.8108.1009-1.1533.3237-.3258.2235-.5942.5208-.7832.8677-.2138.3921-.3638.8157-.4444,1.2549-.0952.489-.1422.9862-.1406,1.4844,0,.4902.0385.9796.1152,1.4638.0686.459.2017.906.3956,1.3277.1688.3742.4229.7037.7421.9619.3305.2518.7382.381,1.1534.3657.4223.0123.8367-.1164,1.1777-.3657Z" fill="#fff"></path><path d="M256.1856,30.8234c-.5858-.5247-1.3484-.8085-2.1348-.7944-.638-.0186-1.2668.1562-1.8037.5014-.5115.3471-.9349.8089-1.2363,1.3486-.3387.6032-.5806,1.2558-.7168,1.9341-.1558.7426-.233,1.4995-.2305,2.2583-.0042.8107.073,1.6198.2305,2.4151.1303.6964.3723,1.3672.7168,1.9863.3023.5415.7287,1.0037,1.2441,1.3486.5403.3449,1.1717.5198,1.8125.502.4786.0091.9518-.1024,1.376-.3242.4071-.2209.7613-.5276,1.0381-.899.3062-.4132.5379-.8767.6845-1.3696.1694-.5569.2688-1.1328.2959-1.7143h1.5655c-.0464,1.5864-.5815,3.1198-1.5323,4.3906-.8765,1.05-2.1932,1.6301-3.5595,1.5683-.8356.0193-1.6609-.1865-2.3897-.5957-.6883-.4043-1.2702-.9671-1.6973-1.6416-.476-.7585-.8185-1.593-1.0126-2.4672-.2314-1.0009-.3448-2.0255-.3379-3.0528-.007-1.0321.1147-2.061.3623-3.063.212-.8865.5711-1.7313,1.0625-2.499.4438-.689,1.0419-1.2652,1.747-1.6831.7284-.4192,1.5572-.6324,2.3975-.6167.5966-.0033,1.1888.1029,1.7471.3135.5449.2067,1.0435.5193,1.4668.9199.4491.4337.8125.948,1.0713,1.5161.301.6649.49,1.375.5595,2.1016h-1.5654c-.0983-.9054-.5089-1.7483-1.1611-2.3838Z" fill="#fff"></path><path d="M260.543,36.0192c.1545-.6418.4223-1.2508.791-1.7984.3369-.4947.7825-.9059,1.3027-1.2021,1.1171-.5853,2.4503-.5853,3.5674,0,.5162.2984.9585.7092,1.294,1.2021.3678.548.6356,1.1569.791,1.7984.1799.7285.2685,1.4766.2637,2.227.0053.7469-.0833,1.4915-.2637,2.2163-.1565.6377-.4243,1.2429-.791,1.7876-.3335.4919-.7764.8999-1.294,1.1919-1.1205.5716-2.447.5716-3.5674,0-.5215-.2898-.9677-.6981-1.3027-1.1919-.3676-.5443-.6354-1.1495-.791-1.7876-.1809-.7247-.2695-1.4694-.2637-2.2163-.0053-.7504.0833-1.4986.2637-2.227ZM261.9688,39.9918c.1134.4552.3058.8871.5683,1.2759.2202.3219.5103.5898.8487.7837.6389.3627,1.4215.3627,2.0605,0,.3382-.1942.6282-.462.8486-.7837.2626-.3888.455-.8206.5684-1.2759.2748-1.1477.2748-2.344,0-3.4917-.1149-.4578-.3071-.8926-.5684-1.2856-.2185-.3263-.5088-.5982-.8486-.7949-.6391-.362-1.4214-.362-2.0605,0-.3401.1964-.6305.4684-.8487.7949-.2613.393-.4535.8278-.5683,1.2856-.2748,1.1477-.2748,2.344,0,3.4917Z" fill="#fff"></path><path d="M271.5186,32.8307v1.5889h.0332c.4625-1.112,1.5476-1.8374,2.7519-1.8399.5086-.0052,1.0075.1402,1.4336.418.4708.3426.7946.8505.9063,1.4219.2509-.544.6401-1.0126,1.1289-1.3589.4515-.316.9899-.484,1.541-.481.3942-.0051.7865.055,1.1611.1778.3362.1123.6414.3022.8907.5542.2624.2769.4592.609.5761.9721.1473.4627.217.9467.2061,1.4322v7.9248h-1.4004v-7.0884c.0012-.3148-.021-.6293-.0664-.9409-.0355-.2673-.1193-.5258-.2471-.7632-.1181-.2132-.2919-.3902-.5029-.5122-.2558-.1354-.543-.2003-.8321-.188-.6332-.0272-1.2406.253-1.6308.7524-.4207.582-.6302,1.2902-.5938,2.0074v6.7329h-1.4004v-7.0884c.0022-.3221-.0226-.6439-.0742-.9619-.041-.2672-.1275-.5253-.2558-.7632-.1132-.2082-.281-.3815-.4854-.5015-.2408-.1274-.511-.1887-.7832-.1777-.3735-.01-.7404.0998-1.0469.3135-.2839.2012-.5246.4572-.708.7529-.1768.2815-.3101.588-.3955.9092-.074.2552-.1156.5186-.124.7842v6.7329h-1.4004v-10.8101h1.3184Z" fill="#fff"></path><path d="M285.5752,32.8307v1.5889h.0332c.4625-1.112,1.5476-1.8375,2.752-1.8399.5086-.0052,1.0075.1402,1.4336.418.4707.3426.7945.8505.9062,1.4219.2509-.544.6401-1.0126,1.1289-1.3589.4515-.316.9899-.484,1.541-.481.3942-.0051.7866.0549,1.1612.1778.3362.1124.6413.3022.8906.5542.2624.2768.4593.609.5762.9721.1473.4627.2169.9467.206,1.4322v7.9248h-1.4004v-7.0884c.0013-.3148-.0209-.6294-.0664-.9409-.0355-.2672-.1192-.5258-.247-.7632-.1181-.2132-.292-.3902-.503-.5122-.2557-.1354-.5429-.2003-.832-.188-.6332-.0272-1.2406.253-1.6309.7524-.4207.582-.6301,1.2902-.5937,2.0074v6.7329h-1.4004v-7.0884c.0022-.3221-.0226-.6439-.0742-.9619-.041-.2672-.1276-.5253-.2559-.7632-.1132-.2082-.281-.3815-.4853-.5015-.2408-.1273-.511-.1887-.7832-.1777-.3735-.0101-.7404.0998-1.0469.3135-.2839.2012-.5246.4572-.708.7529-.1768.2814-.3102.588-.3955.9092-.074.2552-.1157.5186-.1241.7842v6.7329h-1.4003v-10.8101h1.3183Z" fill="#fff"></path><path d="M298.3955,30.8859v-2.1743h1.4014v2.1743h-1.4014ZM299.7969,32.8307v10.8101h-1.4014v-10.8101h1.4014Z" fill="#fff"></path><path d="M305.6123,32.8307v1.5679h-1.6972v6.7119c-.0037.1683.0101.3365.041.5019.02.1119.075.2145.1572.293.0912.0762.2031.1235.3213.1358.1774.0234.3562.0339.5351.0312h.6426v1.5684h-1.0713c-.3128.0053-.6252-.0263-.9306-.0943-.2378-.0514-.4554-.1712-.626-.3447-.1773-.2026-.2993-.4474-.3545-.7109-.0863-.3983-.125-.8055-.1152-1.2129v-6.8794h-1.4502v-1.5679h1.4502v-3.2412h1.4004v3.2412h1.6972Z" fill="#fff"></path><path d="M310.8037,32.8307v1.5679h-1.6972v6.7119c-.0037.1683.0101.3365.041.5019.02.1119.0751.2145.1572.293.0912.0762.2031.1235.3213.1358.1774.0234.3562.0339.5351.0312h.6426v1.5684h-1.0713c-.3128.0053-.6252-.0263-.9306-.0943-.2378-.0514-.4554-.1712-.626-.3447-.1772-.2026-.2993-.4474-.3545-.7109-.0863-.3983-.125-.8055-.1152-1.2129v-6.8794h-1.4502v-1.5679h1.4502v-3.2412h1.4004v3.2412h1.6972Z" fill="#fff"></path><path d="M318.3838,42.9508c-.6462.617-1.5132.9485-2.4062.9199-.6166.0153-1.2268-.1286-1.7715-.4179-.5068-.2854-.9388-.6866-1.2608-1.1709-.3605-.549-.6198-1.1581-.7656-1.7984-.1771-.7473-.274-1.5114-.2891-2.2793-.0076-.763.0924-1.5232.2969-2.2583.1757-.6349.457-1.2357.832-1.7773.3324-.4785.7658-.8782,1.2696-1.1709.4892-.2786,1.0434-.4229,1.6064-.418.6788-.0253,1.3455.1851,1.8867.5957.5091.4093.9202.9273,1.2032,1.5161.3082.6339.5192,1.3106.6259,2.0074.1125.6839.1597,1.377.1407,2.0698h-6.378c-.0128.4533.0315.9064.1319,1.3486.0887.4027.2509.7855.4785,1.1294.2146.3236.5023.5922.8398.7842.3682.202.7833.3029,1.2032.2925.5353.0212,1.058-.1661,1.458-.5225.4202-.4313.6842-.9907.75-1.5893h1.3847c-.0995,1.0242-.534,1.987-1.2363,2.7392ZM318.0459,36.0089c-.1129-.3511-.2856-.68-.5107-.9721-.2062-.2651-.464-.4857-.7578-.6485-.2954-.1612-.6273-.2439-.9639-.2402-.342-.0052-.6796.0775-.9805.2402-.2946.1628-.5505.3875-.75.6587-.2172.2946-.3842.6231-.4941.9722-.1234.3827-.1956.78-.2149,1.1816h4.8946c-.0201-.4055-.095-.8065-.2227-1.1919Z" fill="#fff"></path><path d="M327.2324,42.9508c-.6462.617-1.5132.9485-2.4062.9199-.6166.0153-1.2268-.1286-1.7715-.4179-.5067-.2854-.9388-.6866-1.2607-1.1709-.3605-.549-.6198-1.158-.7657-1.7984-.1771-.7473-.274-1.5114-.289-2.2793-.0076-.763.0923-1.5232.2968-2.2583.1757-.6349.457-1.2357.8321-1.7773.3324-.4785.7657-.8782,1.2695-1.1709.4892-.2787,1.0435-.4229,1.6065-.418.6788-.0253,1.3455.1851,1.8867.5957.5091.4093.9202.9273,1.2031,1.5161.3083.6339.5193,1.3106.626,2.0074.1125.6839.1595,1.377.1406,2.0698h-6.3779c-.0128.4533.0314.9064.1318,1.3486.0887.4027.2509.7856.4785,1.1294.2146.3236.5023.5922.8399.7842.3682.202.7833.3029,1.2031.2925.5353.0212,1.058-.1661,1.458-.5225.4202-.4313.6842-.9907.75-1.5893h1.3848c-.0995,1.0242-.5341,1.9871-1.2364,2.7392ZM326.8945,36.0089c-.1128-.3511-.2856-.68-.5107-.9721-.2062-.2651-.464-.4857-.7578-.6485-.2954-.1612-.6273-.244-.9639-.2402-.342-.0052-.6796.0775-.9804.2402-.2946.1628-.5505.3875-.75.6587-.2172.2946-.3842.6231-.4942.9722-.1234.3827-.1956.78-.2148,1.1816h4.8945c-.0201-.4055-.095-.8065-.2227-1.1919Z" fill="#fff"></path></g></g></g></svg>